<svg width="221" height="271" viewBox="0 0 221 271" fill="none" xmlns="http://www.w3.org/2000/svg">
<path d="M131.975 159.386V222.014L125.374 220.243V160.272" fill="#B6BEC6"/>
<path d="M131.975 159.386V222.014L125.374 220.243V160.272" stroke="#C8CCCF" stroke-miterlimit="10" stroke-linecap="round" stroke-linejoin="round"/>
<path d="M28.6156 248.015L131.975 222.095L125.374 220.243L28.6156 243.91" fill="#B6BEC6"/>
<path d="M28.6156 248.015L131.975 222.095L125.374 220.243L28.6156 243.91" stroke="#C8CCCF" stroke-miterlimit="10" stroke-linecap="round" stroke-linejoin="round"/>
<path d="M131.975 222.175L28.6156 248.095V21.7344L131.975 32.9236V222.175Z" stroke="#E5EAF0" stroke-miterlimit="10" stroke-linecap="round" stroke-linejoin="round"/>
<path d="M12.8379 0.724609V270.232L146.465 232.559V19.2392L12.8379 0.724609ZM131.975 222.175L28.6155 248.095V21.7346L131.975 32.8434V222.175Z" fill="white" stroke="#C8CCCF" stroke-miterlimit="10"/>
<path d="M37.8729 161.238H22.1758V154.637L37.8729 152.946V161.238Z" fill="#1F76CC" stroke="#E5EAF0" stroke-miterlimit="10" stroke-linecap="round" stroke-linejoin="round"/>
<path opacity="0.27" d="M28.6156 248.095L91.0821 159.386L28.2936 166.872L28.6156 248.095Z" fill="white"/>
<path d="M35.7799 130.085L23.7052 130.729L26.2811 135.479C26.2811 135.479 40.8513 134.996 40.7708 134.915C40.6903 134.835 35.7799 130.085 35.7799 130.085Z" fill="#1F76CC" stroke="#E5EAF0" stroke-miterlimit="10" stroke-linecap="round" stroke-linejoin="round"/>
<path d="M139.703 37.3512L22.5782 24.713V7.80835L139.703 23.908V37.3512Z" fill="#2B8CFC" stroke="#E5EAF0" stroke-miterlimit="10" stroke-linecap="round" stroke-linejoin="round"/>
<path d="M145.016 135.479C148.236 142.08 144.694 143.77 139.703 144.817V158.421L22.1758 174.923V154.557C34.0895 159.709 35.78 156.328 35.3775 153.188C35.3775 153.188 35.3775 153.188 35.3775 153.108C35.2165 151.417 34.2505 149.807 32.882 148.761C25.9592 143.448 23.6248 130.649 23.6248 130.649C35.136 135.881 36.3435 131.776 36.0215 128.717C35.8605 127.268 35.2165 125.98 34.331 124.853C23.9467 111.732 22.4978 97.5641 22.4978 97.5641C23.0613 97.6446 23.5443 97.6446 24.0273 97.5641C33.1235 95.8737 22.4978 61.662 22.4978 61.662C22.4978 61.662 23.9468 61.9839 25.6372 61.8229C27.2472 61.662 29.0986 60.9375 30.1451 59.0055C34.492 50.3117 22.4978 24.6328 22.4978 24.6328L139.623 36.5465C139.623 36.5465 153.227 71.3217 139.623 67.4578C139.623 67.4578 154.112 99.7376 139.623 97.0811C139.623 97.0811 141.233 105.936 142.842 111.329C144.533 116.723 151.134 121.955 140.106 125.577C140.267 125.738 143.004 131.293 145.016 135.479Z" fill="#2B8CFC" stroke="#E5EAF0" stroke-miterlimit="10" stroke-linecap="round" stroke-linejoin="round"/>
<path d="M22.5782 61.7421L139.703 67.6184" stroke="#E5EAF0" stroke-miterlimit="10" stroke-linecap="round" stroke-linejoin="round"/>
<path d="M22.5782 97.7252L139.703 97.2422" stroke="#E5EAF0" stroke-miterlimit="10" stroke-linecap="round" stroke-linejoin="round"/>
<path d="M32.238 133.224L140.267 125.738" stroke="#E5EAF0" stroke-miterlimit="10" stroke-linecap="round" stroke-linejoin="round"/>
<path d="M36.1019 130.085L23.7052 130.729" stroke="#E5EAF0" stroke-miterlimit="10" stroke-linecap="round" stroke-linejoin="round"/>
<path d="M31.8356 157.293L139.703 144.896" stroke="#E5EAF0" stroke-miterlimit="10" stroke-linecap="round" stroke-linejoin="round"/>
<path d="M133.344 30.2677C133.344 31.6361 132.539 32.6826 131.492 32.6021C130.446 32.5216 129.641 31.2336 129.641 29.8652C129.641 28.4967 130.446 27.4502 131.492 27.5307C132.539 27.6112 133.344 28.8187 133.344 30.2677Z" fill="white" stroke="#C8CCCF" stroke-miterlimit="10"/>
<path d="M194.281 154.798C194.039 154.154 193.717 153.51 193.476 152.947C193.154 152.222 192.912 151.578 192.59 150.934C186.633 137.974 179.63 127.751 179.63 127.751C179.63 127.751 164.174 102.474 156.688 84.2819C149.282 66.0088 131.492 30.0261 131.492 30.0261" stroke="#C8CCCF" stroke-miterlimit="10"/>
<path d="M200.56 179.028C200.721 182.972 200.318 186.756 199.111 190.056C199.111 190.056 198.386 191.344 197.501 190.7C196.615 190.056 197.098 188.124 197.098 188.124C197.098 188.124 197.823 182.811 199.191 178.223" stroke="#C8CCCF" stroke-miterlimit="10"/>
<path d="M3.50012 265.322L12.7574 269.669V0.724609L3.50012 2.89806V265.322Z" fill="#F4F4F4" stroke="#C8CCCF" stroke-miterlimit="10"/>
<path d="M1.40723 9.8207L3.50018 9.41821V258.077L1.40723 257.191V9.8207Z" fill="#F4F4F4" stroke="#C8CCCF" stroke-miterlimit="10"/>
<path d="M197.34 155.603C197.34 155.603 187.921 152.946 186.15 153.832C186.15 153.832 184.058 154.395 184.863 156.569C185.748 158.742 186.392 159.306 187.921 159.386C187.921 159.386 188.002 160.272 187.921 161.157C187.841 162.043 187.921 162.848 188.163 163.653C188.324 164.136 188.404 164.699 188.163 165.263C187.68 166.631 187.841 167.839 188.646 169.046C189.451 170.254 189.129 171.139 189.129 171.3C189.129 171.461 188.807 172.749 192.027 174.359C195.247 176.049 200.56 178.867 200.56 178.867L205.792 192.23C205.792 192.23 207.643 186.675 211.829 185.79C216.015 184.904 219.638 184.019 219.638 184.019C219.638 184.019 212.232 171.058 209.817 167.436C207.321 163.814 204.263 157.857 203.78 157.213C203.297 156.569 203.377 156.488 200.318 154.395L196.535 150.451L195.005 148.358C194.603 147.795 193.878 147.553 193.234 147.795C192.59 148.036 192.188 148.761 192.349 149.405C192.349 149.405 192.027 151.98 195.166 154.959" fill="#FCE3DB"/>
<path d="M197.34 155.603C197.34 155.603 187.921 152.946 186.15 153.832C186.15 153.832 184.058 154.395 184.863 156.569C185.748 158.742 186.392 159.306 187.921 159.386C187.921 159.386 188.002 160.272 187.921 161.157C187.841 162.043 187.921 162.848 188.163 163.653C188.324 164.136 188.404 164.699 188.163 165.263C187.68 166.631 187.841 167.839 188.646 169.046C189.451 170.254 189.129 171.139 189.129 171.3C189.129 171.461 188.807 172.749 192.027 174.359C195.247 176.049 200.56 178.867 200.56 178.867L205.792 192.23C205.792 192.23 207.643 186.675 211.829 185.79C216.015 184.904 219.638 184.019 219.638 184.019C219.638 184.019 212.232 171.058 209.817 167.436C207.321 163.814 204.263 157.857 203.78 157.213C203.297 156.569 203.377 156.488 200.318 154.395L196.535 150.451L195.005 148.358C194.603 147.795 193.878 147.553 193.234 147.795C192.59 148.036 192.188 148.761 192.349 149.405C192.349 149.405 192.027 151.98 195.166 154.959" stroke="#C8CCCF" stroke-miterlimit="10"/>
<path d="M180.033 176.291C170.131 189.734 155.32 183.294 155.32 183.294" stroke="#C8CCCF" stroke-miterlimit="10"/>
<path d="M156.401 197.95C156.588 197.751 156.809 197.595 157.063 197.481C157.32 197.368 157.578 197.311 157.836 197.311C158.156 197.304 158.461 197.368 158.75 197.505L159.641 197.962C159.899 198.083 160.18 198.143 160.484 198.143C161.008 198.143 161.469 197.893 161.867 197.393V198.507C161.465 198.932 161.004 199.145 160.484 199.145C160.18 199.145 159.899 199.085 159.641 198.964L158.697 198.477C158.432 198.356 158.145 198.3 157.836 198.307C157.578 198.307 157.32 198.374 157.063 198.507C156.809 198.64 156.588 198.823 156.401 199.057V197.95ZM156.395 200.399C156.582 200.2 156.803 200.044 157.057 199.931C157.311 199.813 157.567 199.755 157.824 199.755C158.145 199.747 158.449 199.811 158.738 199.948L159.611 200.399C159.877 200.528 160.166 200.593 160.479 200.593C160.998 200.593 161.457 200.343 161.856 199.843L161.861 200.95C161.459 201.376 160.998 201.589 160.479 201.589C160.174 201.589 159.893 201.528 159.635 201.407L158.744 200.95C158.455 200.813 158.151 200.749 157.83 200.757C157.572 200.757 157.315 200.823 157.057 200.956C156.803 201.089 156.582 201.272 156.395 201.507V200.399ZM170.826 200.364H172.01V201.249H170.826V203.229H169.736V201.249H165.852V200.61L169.672 194.698H170.826V200.364ZM167.082 200.364H169.736V196.181L169.608 196.415L167.082 200.364ZM173.486 198.952L173.92 194.698H178.291V195.7H174.84L174.582 198.026C175 197.78 175.475 197.657 176.006 197.657C176.783 197.657 177.401 197.915 177.858 198.431C178.315 198.942 178.543 199.636 178.543 200.511C178.543 201.39 178.305 202.083 177.828 202.591C177.356 203.095 176.693 203.347 175.842 203.347C175.088 203.347 174.473 203.138 173.996 202.72C173.52 202.302 173.248 201.724 173.182 200.985H174.207C174.274 201.474 174.447 201.843 174.729 202.093C175.01 202.339 175.381 202.462 175.842 202.462C176.346 202.462 176.74 202.29 177.026 201.946C177.315 201.602 177.459 201.128 177.459 200.522C177.459 199.952 177.303 199.495 176.99 199.151C176.682 198.804 176.27 198.63 175.754 198.63C175.281 198.63 174.91 198.733 174.641 198.94L174.354 199.175L173.486 198.952ZM179.779 196.104C179.779 195.698 179.924 195.343 180.213 195.038C180.506 194.733 180.859 194.581 181.274 194.581C181.68 194.581 182.026 194.733 182.311 195.038C182.6 195.339 182.744 195.694 182.744 196.104C182.744 196.518 182.6 196.872 182.311 197.165C182.026 197.458 181.68 197.604 181.274 197.604C180.863 197.604 180.512 197.458 180.219 197.165C179.926 196.872 179.779 196.518 179.779 196.104ZM181.274 196.854C181.484 196.854 181.662 196.786 181.807 196.649C181.951 196.509 182.024 196.327 182.024 196.104C182.024 195.878 181.951 195.692 181.807 195.548C181.662 195.399 181.484 195.325 181.274 195.325C181.059 195.325 180.877 195.403 180.729 195.559C180.584 195.712 180.512 195.893 180.512 196.104C180.512 196.315 180.584 196.493 180.729 196.638C180.877 196.782 181.059 196.854 181.274 196.854Z" fill="#314961"/>
<path d="M157.091 187.238L155.4 183.214L159.345 181.523" stroke="#C8CCCF" stroke-miterlimit="10"/>
<path d="M175.766 176.613L180.113 176.291L180.355 180.638" stroke="#C8CCCF" stroke-miterlimit="10"/>
</svg>
