<svg width="158" height="25" viewBox="0 0 158 25" fill="none" xmlns="http://www.w3.org/2000/svg">
<path d="M55.3992 19.7496H56.7833C56.7833 19.7496 57.187 19.691 57.4177 19.4569C57.5907 19.2228 57.5907 18.8132 57.5907 18.8132C57.5907 18.8132 57.5907 16.8819 58.4558 16.6478C59.3208 16.3552 60.4166 18.462 61.57 19.2814C62.4351 19.9251 63.1271 19.7496 63.1271 19.7496L66.2413 19.691C66.2413 19.691 67.8561 19.574 67.1064 18.2864C67.0487 18.1694 66.645 17.2915 64.7996 15.5358C62.8388 13.663 63.1271 14.0142 65.434 10.7954C66.8757 8.86406 67.4524 7.63505 67.2794 7.16686C67.1064 6.69866 66.0683 6.81571 66.0683 6.81571H62.5504C62.5504 6.81571 62.262 6.75719 62.089 6.87423C61.916 6.99128 61.8007 7.2839 61.8007 7.2839C61.8007 7.2839 61.224 8.80553 60.4742 10.0931C58.9171 12.7852 58.2827 12.9607 58.0521 12.7852C57.4754 12.3755 57.5907 11.205 57.5907 10.3857C57.5907 7.7521 57.9944 6.69866 56.841 6.40604C56.4373 6.28899 56.2066 6.23047 55.2262 6.23047C53.9574 6.23047 52.9193 6.23047 52.285 6.52309C51.8813 6.69866 51.5929 7.16686 51.7659 7.16686C51.9966 7.16686 52.5157 7.34243 52.804 7.69357C53.15 8.16177 53.15 9.33225 53.15 9.33225C53.15 9.33225 53.3807 12.434 52.6887 12.7852C52.2273 13.0778 51.5352 12.4926 50.1511 10.0345C49.4591 8.80553 48.8824 7.40095 48.8824 7.40095C48.8824 7.40095 48.8247 7.22538 48.594 7.10833C48.3633 6.93276 48.075 6.87423 48.075 6.87423H44.7301C44.7301 6.87423 44.211 6.87423 44.038 7.10833C43.865 7.2839 44.038 7.69357 44.038 7.69357C44.038 7.69357 46.6332 13.8971 49.6321 17.0574C52.3426 19.9836 55.3992 19.7496 55.3992 19.7496Z" stroke="#4C75A5" stroke-miterlimit="10" stroke-linecap="round" stroke-linejoin="round"/>
<path fill-rule="evenodd" clip-rule="evenodd" d="M98.4794 18.3452C98.4794 16.5895 98.4794 14.8337 98.4794 13.078C98.4794 12.7854 98.4217 12.6684 98.1334 12.7269C97.6143 12.7269 97.0376 12.7269 96.5186 12.7269C96.2879 12.7269 96.2302 12.6684 96.2302 12.4343C96.2302 11.3223 96.2302 10.2689 96.2302 9.1569C96.2302 8.9228 96.2879 8.86428 96.5186 8.86428C97.0953 8.86428 97.6143 8.86428 98.191 8.86428C98.5371 8.86428 98.5947 8.74723 98.5947 8.45461C98.5947 7.63527 98.5947 6.81593 98.5947 5.93807C98.5947 4.94316 98.8831 3.94825 99.4598 3.12891C100.21 2.07548 101.305 1.60728 102.516 1.54876C103.785 1.49023 105.054 1.54876 106.323 1.49023C106.496 1.49023 106.553 1.54876 106.553 1.72433C106.553 2.83629 106.553 3.94825 106.553 5.06021C106.553 5.23578 106.496 5.29431 106.323 5.29431C105.688 5.29431 105.112 5.29431 104.477 5.29431C103.67 5.29431 103.151 5.70398 103.093 6.52331C103.035 7.16708 103.093 7.86937 103.093 8.51314C103.093 8.74723 103.208 8.74723 103.381 8.74723C104.304 8.74723 105.227 8.74723 106.15 8.74723C106.438 8.74723 106.496 8.80576 106.496 9.09838C106.38 10.2103 106.265 11.3223 106.207 12.3757C106.207 12.6098 106.092 12.6684 105.861 12.6684C105.112 12.6684 104.362 12.6684 103.67 12.6684C103.151 12.6684 103.208 12.6098 103.208 13.1365C103.208 16.5895 103.208 19.9839 103.208 23.4368C103.208 23.7879 103.093 23.905 102.747 23.905C101.478 23.905 100.21 23.905 98.9408 23.905C98.5947 23.905 98.5371 23.7879 98.5371 23.4953C98.4794 21.7981 98.4794 20.0424 98.4794 18.3452Z" stroke="#4C75A5" stroke-miterlimit="10" stroke-linecap="round" stroke-linejoin="round"/>
<path d="M150.21 23.5531H142.367C138.791 23.5531 135.908 20.6269 135.908 16.9984V9.03908C135.908 5.41058 138.791 2.48438 142.367 2.48438H150.21C153.786 2.48438 156.669 5.41058 156.669 9.03908V16.9984C156.669 20.6269 153.786 23.5531 150.21 23.5531Z" stroke="#4C75A5" stroke-miterlimit="10" stroke-linecap="round" stroke-linejoin="round"/>
<path d="M146.289 17.7007C148.837 17.7007 150.902 15.6045 150.902 13.0187C150.902 10.433 148.837 8.33679 146.289 8.33679C143.741 8.33679 141.675 10.433 141.675 13.0187C141.675 15.6045 143.741 17.7007 146.289 17.7007Z" stroke="#4C75A5" stroke-miterlimit="10" stroke-linecap="round" stroke-linejoin="round"/>
<path d="M152.056 7.63442C152.47 7.63442 152.805 7.29379 152.805 6.87361C152.805 6.45342 152.47 6.11279 152.056 6.11279C151.642 6.11279 151.306 6.45342 151.306 6.87361C151.306 7.29379 151.642 7.63442 152.056 7.63442Z" stroke="#4C75A5" stroke-miterlimit="10" stroke-linecap="round" stroke-linejoin="round"/>
<path d="M8.45497 21.2125V15.5356L16.0675 8.68828L6.09046 14.4236L1.24609 11.9656L20.1045 4.41602L16.9903 21.2125L10.7041 17.5254L8.45497 21.2125Z" stroke="#4C75A5" stroke-miterlimit="10" stroke-linecap="round" stroke-linejoin="round"/>
</svg>
